<?xml version="1.0" standalone="no"?>
<!DOCTYPE svg PUBLIC "-//W3C//DTD SVG 1.1//EN" "http://www.w3.org/Graphics/SVG/1.1/DTD/svg11.dtd" >
<svg xmlns="http://www.w3.org/2000/svg">
<metadata>Generated by IcoMoon</metadata>
<defs>
<font id="icomoon" horiz-adv-x="1024">
<font-face units-per-em="1024" ascent="960" descent="-64" />
<missing-glyph horiz-adv-x="1024" />
<glyph unicode="&#x20;" horiz-adv-x="512" d="" />
<glyph unicode="&#xe900;" glyph-name="calender" d="M672 704h128c8.486 0 16.627-3.372 22.626-9.373 6.003-6.001 9.374-14.141 9.374-22.627v-512c0-8.486-3.371-16.627-9.374-22.626-5.999-6.003-14.14-9.374-22.626-9.374h-576c-8.487 0-16.626 3.371-22.627 9.374-6.001 5.999-9.373 14.14-9.373 22.626v512c0 8.487 3.372 16.626 9.373 22.627s14.141 9.373 22.627 9.373h128v64h64v-64h192v64h64v-64zM768 448h-512v-256h512v256zM608 640h-192v-64h-64v64h-96v-128h512v128h-96v-64h-64v64zM320 384h64v-64h-64v64zM480 384h64v-64h-64v64zM640 384h64v-64h-64v64z" />
<glyph unicode="&#xe901;" glyph-name="location" d="M511.999 190.849l158.4 158.4c31.326 31.326 52.655 71.241 61.299 114.692 8.64 43.452 4.203 88.486-12.753 129.418-16.956 40.929-45.666 75.912-82.5 100.524-36.838 24.613-80.145 37.749-124.446 37.749s-87.609-13.137-124.445-37.749c-36.836-24.612-65.547-59.595-82.502-100.524-16.955-40.931-21.392-85.966-12.751-129.418s29.973-83.366 61.297-114.692l158.4-158.4zM511.999 100.353l-203.648 203.648c-40.277 40.277-67.706 91.593-78.818 147.46s-5.409 113.774 16.389 166.399c21.798 52.625 58.712 97.604 106.073 129.25s103.044 48.537 160.004 48.537c56.96 0 112.644-16.891 160.004-48.537s84.275-76.625 106.074-129.25c21.798-52.625 27.503-110.531 16.388-166.399-11.11-55.868-38.541-107.183-78.818-147.46l-203.648-203.648zM511.999 443.649c16.973 0 33.254 6.741 45.257 18.743s18.743 28.284 18.743 45.257c0 16.973-6.741 33.254-18.743 45.257-12.002 12-28.284 18.743-45.257 18.743s-33.254-6.743-45.257-18.743c-12.002-12.002-18.743-28.284-18.743-45.257s6.741-33.254 18.743-45.257c12.002-12.002 28.284-18.743 45.257-18.743zM511.999 379.649c-33.946 0-66.505 13.487-90.51 37.491s-37.49 56.559-37.49 90.509c0 33.946 13.486 66.505 37.49 90.51s56.564 37.49 90.51 37.49c33.95 0 66.505-13.486 90.509-37.49s37.491-56.564 37.491-90.51c0-33.95-13.487-66.505-37.491-90.509s-56.559-37.491-90.509-37.491z" />
<glyph unicode="&#xe902;" glyph-name="bookmark-fill" d="M288 778.298h448c8.486 0 16.627-3.372 22.626-9.373 6.003-6.001 9.374-14.141 9.374-22.627v-612.578c0.004-2.859-0.759-5.67-2.21-8.132-1.451-2.466-3.537-4.497-6.042-5.884s-5.333-2.074-8.192-1.997c-2.859 0.081-5.645 0.926-8.068 2.449l-231.488 145.182-231.488-145.152c-2.42-1.519-5.204-2.364-8.061-2.445s-5.684 0.606-8.186 1.988c-2.502 1.378-4.588 3.405-6.042 5.867s-2.221 5.269-2.223 8.124v612.578c0 8.487 3.372 16.626 9.373 22.627s14.141 9.373 22.627 9.373z" />
<glyph unicode="&#xe903;" glyph-name="heart-line" d="M512.027 694.832c75.166 67.488 191.326 65.248 263.744-7.296 72.384-72.576 74.88-188.159 7.552-263.551l-271.36-271.744-271.298 271.744c-67.328 75.392-64.8 191.166 7.552 263.551 72.48 72.448 188.418 74.88 263.81 7.296zM730.459 642.319c-48 48.064-125.44 50.016-175.68 4.896l-42.722-38.336-42.752 38.304c-50.4 45.184-127.68 43.2-175.808-4.928-47.68-47.68-50.080-123.999-6.144-174.431l224.64-224.994 224.64 224.96c43.968 50.466 41.57 126.689-6.174 174.528z" />
<glyph unicode="&#xe904;" glyph-name="image-edit" d="M732.928 736c17.664 0 32-14.336 32-32v-56.224l-64-64v88.224h-448v-259.2l128 128 138.496-138.526-45.278-45.218-93.218 93.184-128-127.966v-98.274l359.71-0.030 42.53 42.556 42.56-42.526h3.2v88.256l64 64v-184.256c0-17.664-14.336-32-32-32h-512c-17.6 0-32 14.4-32 32v512c0 17.664 14.336 32 32 32h512zM789.824 582.144l45.248-45.248-248.896-248.896-45.312 0.064 0.064 45.184 248.896 248.896zM588.928 608c26.496 0 48-21.504 48-48s-21.504-48-48-48c-26.496 0-48 21.504-48 48s21.504 48 48 48z" />
<glyph unicode="&#xe905;" glyph-name="add" d="M480 480v192h64v-192h192v-64h-192v-192h-64v192h-192v64h192z" />
<glyph unicode="&#xe906;" glyph-name="add-user" d="M528 359.936v-66.88c-28.962 10.24-59.959 13.38-90.385 9.161-30.43-4.224-59.401-15.684-84.481-33.425-25.080-17.737-45.539-41.233-59.657-68.518-14.118-27.281-21.483-57.553-21.477-88.273l-64 0.030c-0.010 39.078 8.925 77.636 26.121 112.725s42.196 65.775 73.085 89.707c30.889 23.932 66.847 40.478 105.12 48.367 38.268 7.885 77.837 6.908 115.674-2.863v-0.030zM464 400c-106.080 0-192 85.922-192 192 0 106.080 85.92 192 192 192 106.078 0 192-85.92 192-192 0-106.078-85.922-192-192-192zM464 464c70.72 0 128 57.28 128 128s-57.28 128-128 128c-70.72 0-128-57.28-128-128s57.28-128 128-128zM656 272v96h64v-96h96v-64h-96v-96h-64v96h-96v64h96z" />
<glyph unicode="&#xe907;" glyph-name="bookmark" d="M288 778.298h448c8.486 0 16.627-3.372 22.626-9.373 6.003-6.001 9.374-14.141 9.374-22.627v-612.578c0.004-2.859-0.759-5.67-2.21-8.132-1.451-2.466-3.537-4.497-6.042-5.884s-5.333-2.074-8.192-1.997c-2.859 0.081-5.645 0.926-8.068 2.449l-231.488 145.182-231.488-145.152c-2.42-1.519-5.204-2.364-8.061-2.445s-5.684 0.606-8.186 1.988c-2.502 1.378-4.588 3.405-6.042 5.867s-2.221 5.269-2.223 8.124v612.578c0 8.487 3.372 16.626 9.373 22.627s14.141 9.373 22.627 9.373zM704 714.298h-384v-493.824l192 120.35 192-120.35v493.824z" />
<glyph unicode="&#xe908;" glyph-name="chat" d="M576 120l-89.6 112h-166.4c-8.487 0-16.626 3.371-22.627 9.374-6.001 5.999-9.373 14.14-9.373 22.626v348.704c0 8.487 3.372 16.626 9.373 22.627s14.141 9.373 22.627 9.373h512c8.486 0 16.627-3.372 22.626-9.373 6.003-6.001 9.374-14.141 9.374-22.627v-348.704c0-8.486-3.371-16.627-9.374-22.626-5.999-6.003-14.14-9.374-22.626-9.374h-166.4l-89.6-112zM634.846 296h165.154v284.704h-448v-284.704h165.154l58.846-73.536 58.846 73.536zM192 776h544v-64h-512v-352h-64v384c0 8.487 3.372 16.626 9.373 22.627s14.141 9.373 22.627 9.373z" />
<glyph unicode="&#xe909;" glyph-name="comment" d="M649.822 721.6l-64-64h-312.222v-448h448v312.224l64 64v-408.224c0-8.486-3.371-16.627-9.374-22.626-5.999-6.003-14.14-9.374-22.626-9.374h-512c-8.487 0-16.626 3.371-22.627 9.374-6.001 5.999-9.373 14.14-9.373 22.626v512c0 8.487 3.372 16.626 9.373 22.627s14.141 9.373 22.627 9.373h408.222zM769.122 750.4l45.278-45.312-294.144-294.144-45.184-0.098-0.064 45.346 294.114 294.208z" />
<glyph unicode="&#xe90a;" glyph-name="delete" d="M672 640h160v-64h-64v-416c0-8.486-3.371-16.627-9.374-22.626-5.999-6.003-14.14-9.374-22.626-9.374h-448c-8.487 0-16.626 3.371-22.627 9.374-6.001 5.999-9.373 14.14-9.373 22.626v416h-64v64h160v96c0 8.487 3.372 16.626 9.373 22.627s14.141 9.373 22.627 9.373h256c8.486 0 16.627-3.372 22.626-9.373 6.003-6.001 9.374-14.141 9.374-22.627v-96zM704 576h-384v-384h384v384zM416 480h64v-192h-64v192zM544 480h64v-192h-64v192zM416 704v-64h192v64h-192z" />
<glyph unicode="&#xe90b;" glyph-name="flag" d="M288 336v-192h-64v608h300.224c5.939-0.003 11.763-1.66 16.815-4.785 5.056-3.126 9.139-7.596 11.793-12.911l23.168-46.304h192c8.486 0 16.627-3.372 22.626-9.373 6.003-6.001 9.374-14.141 9.374-22.627v-352c0-8.486-3.371-16.627-9.374-22.626-5.999-6.003-14.14-9.374-22.626-9.374h-204.224c-5.939 0.004-11.763 1.66-16.815 4.787-5.056 3.123-9.139 7.595-11.793 12.907l-23.168 46.306h-224zM288 688v-288h263.552l32-64h152.448v288h-199.552l-32 64h-216.448z" />
<glyph unicode="&#xe90c;" glyph-name="logout-light" d="M304 256h64v-64h384v512h-384v-64h-64v96c0 8.487 3.372 16.626 9.373 22.627s14.141 9.373 22.627 9.373h448c8.486 0 16.627-3.372 22.626-9.373 6.003-6.001 9.374-14.141 9.374-22.627v-576c0-8.486-3.371-16.627-9.374-22.626-5.999-6.003-14.14-9.374-22.626-9.374h-448c-8.487 0-16.626 3.371-22.627 9.374-6.001 5.999-9.373 14.14-9.373 22.626v96zM368 480h224v-64h-224v-96l-160 128 160 128v-96z" />
<glyph unicode="&#xe90d;" glyph-name="lock" d="M320 560v32c0 50.921 20.229 99.758 56.236 135.764s84.842 56.236 135.764 56.236c50.923 0 99.759-20.229 135.765-56.236s56.235-84.843 56.235-135.764v-32h64c8.486 0 16.627-3.372 22.626-9.373 6.003-6.001 9.374-14.141 9.374-22.627v-384c0-8.486-3.371-16.627-9.374-22.626-5.999-6.003-14.14-9.374-22.626-9.374h-512c-8.487 0-16.626 3.371-22.627 9.374-6.001 5.999-9.373 14.14-9.373 22.626v384c0 8.487 3.372 16.626 9.373 22.627s14.141 9.373 22.627 9.373h64zM736 496h-448v-320h448v320zM480 312.576c-12.203 7.044-21.739 17.916-27.127 30.933-5.393 13.018-6.34 27.447-2.692 41.058 3.648 13.606 11.682 25.634 22.861 34.21 11.174 8.576 24.87 13.222 38.959 13.222s27.785-4.646 38.959-13.222c11.179-8.576 19.213-20.604 22.861-34.21 3.648-13.611 2.701-28.041-2.692-41.058-5.389-13.018-14.925-23.889-27.127-30.933v-72.576h-64v72.576zM384 560h256v32c0 33.948-13.487 66.505-37.491 90.51s-56.563 37.49-90.509 37.49c-33.946 0-66.505-13.486-90.51-37.49s-37.49-56.562-37.49-90.51v-32z" />
<glyph unicode="&#xe90e;" glyph-name="heart" d="M512.027 694.832c75.166 67.488 191.326 65.248 263.744-7.296 72.384-72.576 74.88-188.159 7.552-263.551l-271.36-271.744-271.298 271.744c-67.328 75.392-64.8 191.166 7.552 263.551 72.48 72.448 188.418 74.88 263.81 7.296z" />
<glyph unicode="&#xe90f;" glyph-name="plane" d="M201.179 545.447c-16.704 5.568-16.864 14.562 0.32 20.288l610.783 203.585c16.93 5.632 26.624-3.84 21.888-20.416l-174.528-610.753c-4.8-16.926-14.558-17.502-21.726-1.438l-115.008 258.816 192 255.999-256.001-191.999-257.728 85.918z" />
<glyph unicode="&#xe910;" glyph-name="danger" d="M512 128c-176.736 0-320 143.264-320 320s143.264 320 320 320c176.736 0 320-143.264 320-320s-143.264-320-320-320zM512 493.248l-90.496 90.528-45.28-45.28 90.528-90.496-90.528-90.496 45.28-45.28 90.496 90.528 90.496-90.528 45.28 45.28-90.528 90.496 90.528 90.496-45.28 45.28-90.496-90.528z" />
<glyph unicode="&#xe911;" glyph-name="information" d="M511.999 149.334c-164.947 0-298.666 133.715-298.666 298.666s133.719 298.667 298.666 298.667c164.95 0 298.669-133.716 298.669-298.667s-133.718-298.666-298.669-298.666zM565.323 294.671l4.768 19.498c-2.47-1.162-6.448-2.486-11.907-3.994-5.472-1.507-10.397-2.275-14.726-2.275-9.219 0-15.712 1.51-19.482 4.547-3.741 3.040-5.606 8.755-5.606 17.123 0 3.315 0.563 8.259 1.741 14.73 1.142 6.515 2.454 12.301 3.914 17.363l17.805 63.037c1.741 5.782 2.938 12.144 3.581 19.085 0.659 6.925 0.963 11.773 0.963 14.522 0 13.293-4.659 24.080-13.981 32.4-9.322 8.314-22.595 12.474-39.795 12.474-9.574 0-19.693-1.702-30.403-5.101-10.71-3.389-21.907-7.472-33.619-12.243l-4.781-19.51c3.488 1.29 7.648 2.678 12.512 4.118 4.842 1.43 9.594 2.17 14.214 2.17 9.437 0 15.795-1.606 19.126-4.778 3.331-3.178 5.005-8.832 5.005-16.915 0-4.467-0.528-9.434-1.629-14.829-1.082-5.43-2.435-11.174-4.026-17.232l-17.882-63.29c-1.59-6.65-2.752-12.602-3.482-17.885-0.726-5.277-1.075-10.454-1.075-15.491 0-13.008 4.806-23.728 14.416-32.192 9.606-8.426 23.082-12.669 40.4-12.669 11.28 0 21.181 1.472 29.699 4.438 8.512 2.954 19.939 7.251 34.25 12.899zM562.149 550.732c8.32 7.712 12.458 17.091 12.458 28.074 0 10.957-4.134 20.355-12.458 28.166-8.294 7.789-18.298 11.693-29.987 11.693-11.731 0-21.77-3.898-30.147-11.693-8.374-7.811-12.573-17.206-12.573-28.166 0-10.982 4.198-20.358 12.573-28.074 8.394-7.741 18.413-11.613 30.147-11.613 11.693 0 21.693 3.872 29.987 11.613z" />
<glyph unicode="&#xe912;" glyph-name="success" d="M512 128c-176.736 0-320 143.264-320 320s143.264 320 320 320c176.736 0 320-143.264 320-320s-143.264-320-320-320zM480.096 320l226.24 226.272-45.248 45.248-180.992-181.024-90.528 90.528-45.248-45.248 135.776-135.776z" />
<glyph unicode="&#xe913;" glyph-name="warning" d="M512 128c-176.736 0-320 143.264-320 320s143.264 320 320 320c176.736 0 320-143.264 320-320s-143.264-320-320-320zM480 352v-64h64v64h-64zM480 608v-192h64v192h-64z" />
<glyph unicode="&#xe914;" glyph-name="arrow-left-down" horiz-adv-x="1067" d="M405.388 365.056l274.945 274.944 45.167-45.169-274.944-274.942h242.33v-63.889h-351.386v351.385h63.888v-242.329z" />
<glyph unicode="&#xe915;" glyph-name="arrow-left" d="M378.496 480.913h389.504v-65.826h-389.504l171.648-176.546-45.248-46.541-248.896 256 248.896 256 45.248-46.54-171.648-176.547z" />
<glyph unicode="&#xe916;" glyph-name="arrow-right-up" horiz-adv-x="1067" d="M661.611 530.944l-274.942-274.944-45.169 45.167 274.91 274.945h-242.295v63.888h351.385v-351.386h-63.889v242.33z" />
<glyph unicode="&#xe917;" glyph-name="attachment" d="M605.94 563.217l-168.856-168.886c-2.852-2.755-5.126-6.046-6.691-9.689s-2.388-7.558-2.422-11.522c-0.035-3.964 0.721-7.899 2.222-11.566s3.718-7.002 6.521-9.806c2.803-2.804 6.136-5.018 9.806-6.519s7.6-2.258 11.564-2.224c3.964 0.034 7.881 0.858 11.524 2.423s6.936 3.838 9.69 6.69l168.884 168.856c16.798 16.798 26.234 39.581 26.234 63.336s-9.435 46.538-26.234 63.336c-16.798 16.798-39.58 26.234-63.337 26.234-23.752 0-46.538-9.437-63.332-26.234l-168.887-168.885c-14.149-13.797-25.417-30.264-33.152-48.452-7.734-18.183-11.781-37.722-11.904-57.485s3.677-39.351 11.183-57.632c7.506-18.281 18.567-34.889 32.542-48.859 13.975-13.975 30.585-25.034 48.867-32.539 18.282-7.5 37.871-11.298 57.633-11.171s39.301 4.174 57.487 11.913c18.183 7.734 34.65 19.007 48.445 33.158l168.882 168.853 42.218-42.213-168.887-168.882c-19.407-19.407-42.447-34.801-67.803-45.305s-52.53-15.911-79.975-15.911c-27.445 0-54.621 5.408-79.977 15.911s-48.395 25.897-67.801 45.305c-19.407 19.402-34.8 42.442-45.303 67.799s-15.909 52.531-15.909 79.979c0 27.443 5.406 54.618 15.909 79.974s25.896 48.396 45.303 67.802l168.915 168.856c28.153 27.191 65.86 42.237 104.997 41.897 39.141-0.34 76.581-16.039 104.253-43.715 27.677-27.676 43.379-65.115 43.715-104.253 0.341-39.138-14.702-76.845-41.896-104.998l-168.853-168.943c-8.319-8.319-18.198-14.916-29.066-19.417s-22.518-6.817-34.282-6.817c-11.764 0.005-23.412 2.321-34.28 6.827-10.868 4.501-20.742 11.103-29.060 19.422s-14.914 18.193-19.415 29.062c-4.501 10.869-6.816 22.518-6.815 34.284 0.001 11.761 2.32 23.411 6.823 34.28s11.103 20.743 19.422 29.057l168.886 168.887 42.213-42.214z" />
<glyph unicode="&#xe918;" glyph-name="bell" d="M768 304h64v-64h-640v64h64v224c0 67.895 26.971 133.010 74.981 181.019s113.124 74.981 181.019 74.981c67.895 0 133.009-26.971 181.018-74.981 48.013-48.009 74.982-113.124 74.982-181.019v-224zM704 304v224c0 50.921-20.228 99.758-56.235 135.764s-84.843 56.236-135.765 56.236c-50.923 0-99.758-20.229-135.764-56.236s-56.236-84.843-56.236-135.764v-224h384zM416 176h192v-64h-192v64z" />
<glyph unicode="&#xe919;" glyph-name="check" d="M444.114 346.159l294.144 294.177 45.278-45.248-339.422-339.425-203.65 203.648 45.248 45.248 158.402-158.4z" />
<glyph unicode="&#xe91a;" glyph-name="chevron-down" d="M512.001 414.048l158.4 158.399 45.248-45.247-203.648-203.648-203.65 203.648 45.248 45.247 158.402-158.399z" />
<glyph unicode="&#xe91b;" glyph-name="chevron-right" d="M545.953 447.999l-158.402 158.402 45.25 45.248 203.648-203.65-203.648-203.648-45.25 45.248 158.402 158.4z" />
<glyph unicode="&#xe91c;" glyph-name="chevron-up" d="M512.001 481.952l-158.402-158.4-45.248 45.248 203.65 203.648 203.648-203.648-45.248-45.248-158.4 158.4z" />
<glyph unicode="&#xe91d;" glyph-name="close" d="M512.001 493.247l158.4 158.402 45.248-45.248-158.4-158.402 158.4-158.4-45.248-45.248-158.4 158.4-158.402-158.4-45.248 45.248 158.402 158.4-158.402 158.402 45.248 45.248 158.402-158.402z" />
<glyph unicode="&#xe91e;" glyph-name="copy" d="M352 640v96c0 8.487 3.372 16.626 9.373 22.627s14.141 9.373 22.627 9.373h384c8.486 0 16.627-3.372 22.626-9.373 6.003-6.001 9.374-14.141 9.374-22.627v-448c0-8.486-3.371-16.627-9.374-22.626-5.999-6.003-14.14-9.374-22.626-9.374h-96v-96c0-17.664-14.4-32-32.222-32h-383.554c-4.22-0.026-8.403 0.785-12.31 2.381s-7.459 3.947-10.453 6.921c-2.994 2.974-5.372 6.511-6.995 10.406s-2.461 8.073-2.466 12.292l0.096 448c0 17.664 14.4 32 32.224 32h95.68zM288.096 576l-0.096-384h320v384h-319.904zM416 640h256v-320h64v384h-320v-64z" />
<glyph unicode="&#xe91f;" glyph-name="filter" d="M448 256h128v64h-128v-64zM224 640v-64h576v64h-576zM320 416h384v64h-384v-64z" />
<glyph unicode="&#xe920;" glyph-name="group" d="M176 112c0 67.895 26.971 133.009 74.981 181.018 48.009 48.013 113.124 74.982 181.019 74.982s133.009-26.97 181.018-74.982c48.013-48.009 74.982-113.122 74.982-181.018h-64c0 50.923-20.228 99.759-56.235 135.765s-84.843 56.235-135.765 56.235c-50.921 0-99.758-20.228-135.764-56.235s-56.236-84.843-56.236-135.765h-64zM432 400c-106.080 0-192 85.922-192 192 0 106.080 85.92 192 192 192 106.078 0 192-85.92 192-192 0-106.078-85.922-192-192-192zM432 464c70.72 0 128 57.28 128 128s-57.28 128-128 128c-70.72 0-128-57.28-128-128s57.28-128 128-128zM697.088 345.502c44.971-20.25 83.136-53.060 109.905-94.485 26.773-41.421 41.011-89.694 41.007-139.017h-64c0.009 36.992-10.671 73.199-30.75 104.269s-48.704 55.68-82.436 70.865l26.244 58.368h0.030zM675.072 706.784c32.239-13.289 59.806-35.857 79.202-64.839 19.392-28.982 29.739-63.072 29.726-97.945 0.013-43.913-16.393-86.246-45.999-118.682s-70.268-52.629-114.001-56.614v64.414c23.71 3.396 45.709 14.306 62.763 31.125 17.054 16.815 28.267 38.66 31.996 62.319 3.725 23.66-0.23 47.892-11.29 69.138s-28.638 38.388-50.155 48.908l17.758 62.176z" />
<glyph unicode="&#xe921;" glyph-name="home" d="M544 212.278h192v288.704l-224 174.206-224-174.206v-288.704h192v192h64v-192zM800 180.278c0-8.491-3.371-16.627-9.374-22.63-5.999-5.999-14.14-9.37-22.626-9.37h-512c-8.487 0-16.626 3.371-22.627 9.37-6.001 6.003-9.373 14.14-9.373 22.63v336.32c-0.003 4.877 1.108 9.687 3.249 14.069s5.254 8.215 9.103 11.209l256 199.104c5.619 4.37 12.531 6.742 19.648 6.742s14.029-2.372 19.648-6.742l256-199.104c3.849-2.994 6.963-6.828 9.105-11.209 2.138-4.381 3.251-9.192 3.247-14.069v-336.32z" />
<glyph unicode="&#xe922;" glyph-name="mail" d="M224 736h576c8.486 0 16.627-3.372 22.626-9.373 6.003-6.001 9.374-14.141 9.374-22.627v-512c0-8.486-3.371-16.627-9.374-22.626-5.999-6.003-14.14-9.374-22.626-9.374h-576c-8.487 0-16.626 3.371-22.627 9.374-6.001 5.999-9.373 14.14-9.373 22.626v512c0 8.487 3.372 16.626 9.373 22.627s14.141 9.373 22.627 9.373zM768 600.384l-253.696-227.2-258.304 227.904v-377.088h512v376.384zM272.352 672l241.598-213.184 238.114 213.184h-479.712z" />
<glyph unicode="&#xe923;" glyph-name="minus" d="M296.794 478.744h430.411v-61.487h-430.411v61.487z" />
<glyph unicode="&#xe924;" glyph-name="pencil" d="M631.763 522.515l-45.248 45.249-298.048-298.049v-45.248h45.248l298.048 298.048zM677.011 567.764l45.248 45.248-45.248 45.248-45.248-45.248 45.248-45.248zM360.211 160.467h-135.744v135.778l429.922 429.919c5.999 5.999 14.135 9.369 22.622 9.369s16.623-3.37 22.626-9.369l90.526-90.528c5.999-6.001 9.37-14.139 9.37-22.624s-3.371-16.623-9.37-22.624l-429.952-429.921z" />
<glyph unicode="&#xe925;" glyph-name="search" d="M699.97 305.278l137.054-137.020-45.282-45.282-137.020 137.054c-50.987-40.87-114.402-63.1-179.746-63.006-158.976 0-288 129.024-288 288s129.024 288 288 288c158.976 0 288-129.024 288-288 0.094-65.344-22.135-128.759-63.006-179.746zM635.774 329.026c40.614 41.762 63.296 97.745 63.202 155.998 0 123.776-100.254 224-224 224-123.776 0-224-100.224-224-224 0-123.746 100.224-224 224-224 58.253-0.094 114.236 22.588 155.998 63.202l4.8 4.8z" />
<glyph unicode="&#xe926;" glyph-name="security" d="M512 800l262.942-58.432c7.108-1.58 13.461-5.535 18.018-11.213s7.040-12.74 7.040-20.019v-319.582c-0.004-31.612-7.808-62.729-22.724-90.594s-36.48-51.622-62.78-69.154l-202.496-135.006-202.496 135.006c-26.295 17.532-47.857 41.28-62.773 69.141-14.915 27.857-22.723 58.97-22.731 90.573v319.616c0.001 7.279 2.484 14.341 7.040 20.019s10.91 9.633 18.016 11.213l262.944 58.432zM512 734.432l-224-49.76v-293.918c0-21.073 5.202-41.818 15.145-60.395s24.316-34.415 41.847-46.106l167.008-111.36 167.006 111.36c17.527 11.686 31.902 27.52 41.843 46.093 9.941 18.569 15.147 39.309 15.151 60.373v293.952l-224 49.76zM512 608c14.093 0.006 27.789-4.637 38.972-13.212s19.221-20.599 22.874-34.208c3.648-13.61 2.705-28.045-2.684-41.062s-14.929-23.898-27.127-30.942l-0.034-136.576h-64v136.576c-12.198 7.044-21.734 17.92-27.127 30.933-5.389 13.018-6.336 27.447-2.688 41.055 3.644 13.608 11.678 25.633 22.857 34.209s24.87 13.226 38.959 13.226z" />
<glyph unicode="&#xe927;" glyph-name="settings" d="M234.882 287.999c-13.527 23.394-24.043 48.405-31.296 74.432 15.786 8.030 29.043 20.271 38.305 35.366s14.167 32.457 14.174 50.167c0.006 17.711-4.886 35.076-14.137 50.18s-22.499 27.349-38.278 35.392c14.465 52.305 42.007 100.066 80.032 138.784 14.851-9.655 32.084-15.013 49.791-15.481s35.199 3.973 50.539 12.83c15.34 8.858 27.93 21.787 36.378 37.356 8.449 15.57 12.421 33.173 11.482 50.862 52.548 13.58 107.691 13.558 160.226-0.064-0.93-17.688 3.051-35.289 11.507-50.854 8.452-15.566 21.047-28.489 36.39-37.339s32.836-13.284 50.543-12.809c17.707 0.475 34.935 5.839 49.783 15.499 18.526-18.88 34.974-40.352 48.798-64.32 13.858-23.968 24.226-48.96 31.296-74.432-15.782-8.027-29.043-20.268-38.302-35.364-9.263-15.095-14.17-32.457-14.174-50.167-0.009-17.711 4.885-35.076 14.135-50.18s22.498-27.354 38.276-35.392c-14.464-52.305-42.005-100.066-80.030-138.786-14.852 9.655-32.085 15.014-49.792 15.484-17.707 0.465-35.2-3.972-50.539-12.83s-27.93-21.79-36.378-37.359c-8.448-15.569-12.42-33.173-11.486-50.863-52.544-13.577-107.686-13.555-160.222 0.064 0.93 17.69-3.055 35.29-11.507 50.854-8.454 15.569-21.049 28.493-36.392 37.342s-32.836 13.282-50.543 12.809c-17.706-0.474-34.936-5.837-49.783-15.501-18.912 19.298-35.309 40.913-48.8 64.32zM416.002 281.727c34.102-19.665 59.74-51.23 71.998-88.64 15.97-1.502 32-1.536 47.97-0.030 12.267 37.414 37.918 68.979 72.030 88.64 34.091 19.721 74.257 26.159 112.802 18.078 9.28 13.056 17.28 26.978 23.936 41.536-26.257 29.333-40.764 67.324-40.738 106.688 0 40.32 15.040 77.986 40.738 106.69-6.703 14.555-14.737 28.46-24 41.536-38.519-8.074-78.665-1.647-112.738 18.048-34.099 19.668-59.738 51.233-72 88.64-15.966 1.504-32 1.536-47.966 0.032-12.271-37.413-37.922-68.977-72.032-88.64-34.087-19.722-74.257-26.16-112.8-18.080-9.262-13.065-17.276-26.971-23.936-41.536 26.258-29.331 40.764-67.321 40.736-106.69 0-40.32-15.040-77.982-40.736-106.688 6.703-14.554 14.737-28.459 24-41.536 38.519 8.077 78.662 1.651 112.736-18.048zM512 351.999c-25.459 0-49.877 10.116-67.883 28.122-18.001 18.001-28.116 42.419-28.116 67.878 0 25.463 10.114 49.882 28.116 67.883 18.005 18.005 42.423 28.119 67.883 28.119 25.463 0 49.882-10.114 67.883-28.119 18.005-18.001 28.117-42.419 28.117-67.883 0-25.459-10.112-49.877-28.117-67.878-18.001-18.005-42.419-28.122-67.883-28.122zM512 415.999c8.491 0 16.627 3.375 22.63 9.374 5.999 6.003 9.37 14.14 9.37 22.626 0 8.491-3.371 16.627-9.37 22.63-6.003 5.999-14.14 9.37-22.63 9.37-8.486 0-16.623-3.371-22.626-9.37-5.999-6.003-9.374-14.14-9.374-22.63 0-8.486 3.375-16.623 9.374-22.626 6.003-5.999 14.14-9.374 22.626-9.374z" />
<glyph unicode="&#xe928;" glyph-name="three-dot" d="M512 736c-26.398 0-48-21.6-48-48s21.602-48 48-48c26.398 0 48 21.6 48 48s-21.602 48-48 48zM512 256c-26.398 0-48-21.602-48-48s21.602-48 48-48c26.398 0 48 21.602 48 48s-21.602 48-48 48zM512 496c-26.398 0-48-21.598-48-48s21.602-48 48-48c26.398 0 48 21.598 48 48s-21.602 48-48 48z" />
<glyph unicode="&#xe929;" glyph-name="triangle-down" d="M512 352l-192 192h384l-192-192z" />
<glyph unicode="&#xe92a;" glyph-name="upload" d="M256 224h512v224h64v-256c0-8.486-3.371-16.627-9.374-22.626-5.999-6.003-14.14-9.374-22.626-9.374h-576c-8.487 0-16.626 3.371-22.627 9.374-6.001 5.999-9.373 14.14-9.373 22.626v256h64v-224zM544 544v-224h-64v224h-160l192 192 192-192h-160z" />
<glyph unicode="&#xe92b;" glyph-name="user-settings" d="M473.649 376v-64c-50.923 0-99.758-20.228-135.764-56.235s-56.236-84.843-56.236-135.765h-64c0 67.895 26.971 133.009 74.981 181.018 48.009 48.013 113.124 74.982 181.019 74.982zM473.649 408c-106.080 0-192 85.922-192 192 0 106.080 85.92 192 192 192 106.078 0 192-85.92 192-192 0-106.078-85.922-192-192-192zM473.649 472c70.72 0 128 57.28 128 128s-57.28 128-128 128c-70.72 0-128-57.28-128-128s57.28-128 128-128zM556.687 222.016c-4.053 17.075-4.053 34.863 0 51.938l-31.744 18.334 32 55.424 31.744-18.334c12.745 12.066 28.143 20.966 44.962 25.98v36.642h64v-36.642c17.024-5.056 32.384-14.080 44.962-25.98l31.74 18.334 32-55.424-31.74-18.334c4.049-17.067 4.049-34.842 0-51.908l31.74-18.334-32-55.424-31.74 18.338c-12.745-12.070-28.143-20.971-44.962-25.984v-36.642h-64v36.642c-16.819 5.013-32.218 13.914-44.962 25.984l-31.744-18.338-32 55.424 31.744 18.304zM665.649 200c12.732 0 24.939 5.056 33.941 14.059s14.059 21.21 14.059 33.941c0 12.732-5.056 24.939-14.059 33.941s-21.21 14.059-33.941 14.059c-12.732 0-24.939-5.056-33.941-14.059s-14.059-21.21-14.059-33.941c0-12.732 5.056-24.939 14.059-33.941s21.21-14.059 33.941-14.059z" />
</font>
</defs>
</svg>
